<svg width="220" height="64" viewBox="0 0 220 64" xmlns="http://www.w3.org/2000/svg">
  <g transform="translate(8,0)">
    <circle cx="32" cy="32" r="30" fill="#1A1432"/>
    <g transform="translate(32,34)">
      <path d="M-14 2 Q-21 11 -16 22 Q-9 18 -9 7 Z" fill="#8E76C4"/>
      <path d="M14 2 Q21 11 16 22 Q9 18 9 7 Z" fill="#8E76C4"/>
      <path d="M-11 -15 L-8 -21 L-5 -14 Z" fill="#8E76C4"/>
      <path d="M11 -15 L8 -21 L5 -14 Z" fill="#8E76C4"/>
      <ellipse cx="0" cy="-2" rx="16" ry="18" fill="#B89AE8"/>
      <circle cx="-6.5" cy="-6" r="6" fill="#1A1432"/>
      <circle cx="6.5" cy="-6" r="6" fill="#1A1432"/>
      <circle cx="-6.5" cy="-6" r="2.7" fill="#B89AE8"/>
      <circle cx="6.5" cy="-6" r="2.7" fill="#B89AE8"/>
      <path d="M0 1 L-3.5 6.5 L3.5 6.5 Z" fill="#6b5594"/>
    </g>
  </g>
  <text x="78" y="40" font-family="'Cormorant Garamond', Georgia, serif" font-size="30" font-weight="600" fill="#B89AE8">DreamWise</text>
</svg>
